<?xml version="1.0" standalone="no"?>
<!DOCTYPE svg PUBLIC "-//W3C//DTD SVG 20010904//EN"
 "http://www.w3.org/TR/2001/REC-SVG-20010904/DTD/svg10.dtd">
<svg version="1.0" xmlns="http://www.w3.org/2000/svg"
 width="16.000000pt" height="16.000000pt" viewBox="0 0 16.000000 16.000000"
 preserveAspectRatio="xMidYMid meet">
<metadata>
Created by potrace 1.11, written by Peter Selinger 2001-2013
</metadata>
<g transform="translate(0.000000,16.000000) scale(0.007018,-0.007018)"
fill="#000000" stroke="none">
<path d="M950 2220 c-9 -6 -10 -10 -3 -10 6 0 15 5 18 10 8 12 4 12 -15 0z"/>
<path d="M1075 2218 c-24 -15 -44 -16 -67 -6 -13 6 -16 5 -12 -5 3 -8 -2 -14
-10 -14 -8 0 -12 5 -9 11 4 6 0 5 -9 -1 -8 -7 -18 -10 -21 -6 -4 3 -7 1 -7 -5
0 -7 -9 -12 -20 -12 -14 0 -18 5 -13 18 5 14 3 13 -10 -3 -8 -11 -19 -20 -24
-20 -4 -1 -18 -6 -30 -13 -19 -10 -23 -10 -23 0 0 10 -2 10 -9 -1 -7 -11 -9
-11 -14 0 -4 9 -6 8 -6 -5 -1 -15 -4 -16 -15 -7 -11 9 -16 9 -22 0 -4 -8 -3
-9 4 -5 7 4 12 3 12 -2 0 -5 -9 -12 -20 -15 -13 -3 -18 -1 -14 6 3 7 -2 3 -10
-7 -9 -11 -16 -14 -16 -8 0 7 -9 3 -21 -9 -13 -13 -27 -18 -42 -14 -17 5 -19
4 -7 -4 14 -10 13 -12 -10 -15 -6 0 -15 -7 -19 -15 -5 -7 -13 -11 -19 -7 -6 3
-14 1 -18 -5 -5 -8 -3 -9 6 -4 9 6 11 4 5 -4 -4 -7 -16 -11 -26 -8 -10 3 -18
2 -17 -2 2 -21 -4 -30 -19 -24 -10 4 -14 2 -9 -5 3 -6 -3 -13 -14 -17 -11 -4
-18 -10 -15 -15 3 -5 0 -12 -6 -16 -8 -4 -9 -3 -5 4 4 7 2 12 -4 12 -6 0 -14
8 -17 17 -8 21 -40 53 -53 53 -5 0 -10 5 -10 10 0 17 -57 12 -64 -6 -10 -26
-7 -60 9 -90 10 -20 11 -30 3 -35 -7 -4 -4 -9 8 -12 10 -3 -1 -3 -26 0 -49 6
-47 6 -72 4 -22 -1 -33 -38 -18 -56 7 -8 28 -17 49 -21 20 -4 42 -11 48 -16
15 -12 6 -31 -9 -22 -7 5 -9 1 -5 -9 3 -9 3 -16 -1 -16 -19 3 -33 -2 -27 -10
8 -14 -16 -61 -28 -54 -6 4 -8 0 -4 -10 3 -10 2 -17 -3 -17 -6 0 -9 -3 -9 -7
3 -20 -2 -26 -11 -13 -7 11 -8 6 -6 -17 4 -26 0 -33 -16 -39 -16 -5 -18 -8 -7
-15 12 -7 12 -10 0 -21 -10 -10 -12 -10 -7 0 10 18 1 15 -15 -5 -10 -12 -11
-15 -1 -9 10 6 11 1 7 -21 -4 -15 -7 -33 -7 -40 -1 -7 -4 -12 -7 -11 -18 2
-24 -3 -12 -11 7 -5 10 -14 6 -21 -6 -9 -9 -9 -16 1 -6 10 -9 10 -9 2 0 -6 4
-14 9 -18 6 -3 8 -15 5 -28 -3 -12 -6 -27 -8 -34 -1 -7 -5 -16 -9 -19 -10 -11
-8 -26 2 -19 6 3 7 -6 2 -22 -4 -16 -7 -58 -6 -95 1 -39 -2 -68 -8 -68 -6 0
-5 -5 1 -13 14 -17 8 -83 -7 -79 -7 1 -10 -2 -6 -7 3 -6 12 -8 20 -4 10 3 15
-1 15 -12 0 -9 -4 -14 -8 -11 -4 2 -14 0 -22 -6 -12 -8 -12 -9 2 -4 19 6 31
-8 33 -36 1 -9 -3 -15 -9 -12 -6 3 -4 0 4 -8 17 -14 23 -31 23 -65 1 -13 6
-23 12 -23 5 0 3 -5 -5 -10 -13 -8 -13 -10 2 -10 12 0 15 -5 11 -17 -4 -10 -2
-14 4 -10 6 4 13 -2 16 -14 4 -16 3 -18 -8 -9 -10 8 -15 8 -21 -1 -4 -7 -3 -9
3 -6 13 8 55 -31 48 -44 -4 -5 -8 -9 -11 -9 -3 0 -3 4 1 9 3 5 1 12 -4 15 -5
4 -8 -2 -6 -11 1 -11 9 -17 21 -15 16 3 16 2 3 -14 -7 -10 -9 -15 -4 -12 6 4
17 3 25 -2 12 -7 12 -11 0 -27 -8 -10 -10 -15 -5 -10 13 11 44 -23 38 -41 -4
-10 -3 -14 2 -10 12 11 48 -40 41 -59 -6 -14 -4 -14 10 -2 16 13 16 12 5 -8
-10 -19 -9 -23 4 -23 10 0 13 5 9 12 -4 7 -3 8 4 4 6 -4 9 -13 5 -21 -3 -11 2
-15 18 -16 23 0 23 -1 4 -9 -17 -7 -17 -9 -2 -9 9 -1 17 -6 17 -12 0 -5 -4 -8
-8 -5 -5 3 -9 -1 -9 -9 0 -8 5 -11 11 -7 17 10 37 11 30 1 -3 -5 0 -9 6 -9 6
0 8 -4 5 -10 -3 -5 1 -10 9 -10 14 0 21 -17 17 -42 0 -3 11 -5 24 -3 14 1 31
-5 37 -13 10 -13 10 -14 1 -8 -7 4 -13 2 -13 -3 0 -6 5 -11 11 -11 5 0 7 -6 3
-12 -6 -10 -5 -10 8 -1 12 11 18 9 33 -7 10 -11 21 -18 25 -15 7 4 10 -12 11
-53 1 -22 2 -22 16 -5 8 10 12 12 8 6 -4 -8 0 -13 10 -13 9 0 13 -5 10 -10 -4
-6 -11 -8 -16 -5 -5 4 -9 1 -9 -5 0 -6 -5 -8 -12 -4 -7 4 -8 3 -4 -4 4 -6 12
-9 19 -6 7 2 24 -7 38 -20 14 -13 34 -26 45 -28 10 -2 18 -10 16 -16 -1 -7 2
-12 8 -12 5 0 10 5 10 11 0 8 4 8 14 0 10 -9 16 -8 26 4 7 8 17 12 24 9 6 -3
2 2 -8 10 -22 18 -14 21 14 6 12 -7 17 -17 14 -28 -5 -14 -4 -15 5 -2 7 11 6
19 -5 31 -12 13 -12 19 -3 25 7 4 10 3 6 -2 -3 -6 3 -15 14 -22 21 -14 25 -3
7 18 -7 8 -9 11 -4 7 5 -4 16 -1 24 6 11 8 14 8 9 0 -11 -18 12 -26 31 -11 15
12 16 11 3 -5 -18 -23 -7 -34 14 -13 20 19 26 20 23 4 -2 -9 8 -12 29 -12 18
1 31 -2 28 -6 -3 -5 10 -7 29 -5 26 2 33 0 29 -11 -3 -8 0 -14 7 -14 6 0 9 4
6 9 -3 4 1 17 10 27 14 18 15 18 9 -6 l-6 -25 21 24 21 24 -5 -26 c-3 -16 -1
-25 5 -22 5 4 9 12 9 20 0 8 5 17 12 21 7 4 8 3 4 -4 -4 -7 -2 -20 4 -29 11
-17 11 -17 6 -1 -3 10 -1 18 4 18 6 0 10 -4 10 -8 0 -5 7 -9 15 -9 13 0 12 4
-2 20 -18 20 -18 20 9 2 16 -10 25 -22 21 -29 -4 -6 1 -5 10 3 19 15 23 26 5
15 -7 -4 -8 -3 -4 5 4 6 13 8 19 4 19 -12 69 -11 64 1 -3 7 13 12 44 13 27 1
49 -3 49 -8 0 -5 5 -9 11 -9 5 0 7 6 3 13 -5 8 -2 7 9 -2 12 -9 15 -21 11 -34
-6 -20 -6 -20 10 -4 18 17 50 12 39 -7 -3 -6 6 0 20 13 21 19 29 21 41 12 11
-9 15 -8 19 3 4 10 1 13 -8 10 -8 -3 -19 4 -26 18 -11 21 -11 22 5 9 22 -18
33 -6 15 16 -8 9 -9 14 -3 10 6 -3 21 3 32 14 12 11 22 15 22 8 0 -7 7 -8 18
-4 9 4 26 8 37 7 11 0 14 2 7 5 -6 3 -9 10 -5 16 4 7 -5 4 -20 -6 -15 -9 -27
-14 -27 -9 0 15 54 35 58 22 3 -7 10 -3 19 9 8 12 11 26 7 33 -4 6 -3 9 2 6
12 -8 35 17 26 28 -4 4 -1 4 6 0 10 -6 9 -12 -3 -29 -8 -12 -15 -26 -15 -32 1
-5 8 3 16 18 8 15 19 25 24 22 6 -4 7 1 3 11 -4 12 -3 15 5 10 8 -5 12 0 12
13 0 12 5 21 11 21 5 0 7 -6 4 -12 -4 -7 1 -4 10 7 9 11 18 18 20 15 2 -3 7
-1 12 4 5 5 3 6 -4 2 -7 -4 -13 -2 -13 4 0 6 -5 8 -12 4 -7 -4 -8 -3 -4 4 4 6
13 9 21 5 8 -3 15 0 15 7 0 6 5 8 10 5 6 -3 10 1 10 10 0 10 -5 13 -12 9 -7
-4 -9 -3 -5 1 13 15 39 15 33 0 -3 -8 0 -17 6 -21 6 -4 8 -3 4 4 -3 6 -2 13 4
17 6 4 8 11 5 16 -4 5 -1 17 5 26 9 14 10 14 7 2 -3 -9 0 -16 7 -16 6 0 11 14
10 33 -1 20 4 35 12 38 11 4 12 1 4 -14 -5 -10 -6 -21 -1 -24 13 -8 20 4 14
22 -5 11 -3 13 6 7 10 -6 11 -3 2 13 -10 18 -9 20 9 17 11 -2 18 0 15 5 -3 4
1 11 7 14 7 3 2 4 -12 1 -25 -5 -25 -5 -2 6 12 7 22 18 22 26 0 7 5 13 11 13
7 0 9 9 6 21 -4 16 -3 18 8 9 16 -14 26 0 20 29 -2 12 0 19 5 16 13 -8 30 29
25 55 -3 14 5 30 23 47 15 15 22 23 16 20 -6 -4 -16 6 -23 21 -9 22 -9 24 1
12 16 -19 43 -26 32 -8 -12 19 -12 48 -1 41 6 -4 8 5 5 21 -4 20 -2 24 7 16
10 -9 11 -3 5 27 -5 20 -7 39 -4 42 2 2 4 -1 4 -7 0 -7 4 -12 10 -12 11 0 1
32 -13 41 -5 4 0 10 11 13 14 5 19 12 15 23 -5 12 -3 14 8 8 11 -7 12 -6 2 6
-10 12 -10 18 0 29 8 8 8 11 1 7 -7 -4 -15 0 -18 9 -4 11 -2 15 7 11 8 -3 14
2 14 10 0 9 -9 18 -19 21 -10 2 -18 8 -18 13 0 5 6 6 13 4 9 -4 12 10 11 52 0
32 4 62 10 66 6 5 1 5 -11 2 -18 -5 -22 -3 -17 9 3 9 11 13 16 10 6 -4 6 1 -1
13 -6 11 -7 24 -3 28 4 4 -4 4 -18 1 -14 -4 -20 -4 -15 1 13 10 17 83 4 83 -5
0 -9 -5 -9 -12 0 -6 -2 -9 -5 -6 -3 3 -1 17 4 32 10 25 5 31 -21 27 -5 0 -8 4
-8 9 0 6 6 10 14 10 8 0 18 4 21 10 4 6 -1 7 -11 3 -13 -5 -15 -3 -9 8 7 11 6
12 -6 2 -12 -10 -15 -8 -15 7 0 10 3 17 6 15 4 -2 7 2 7 10 0 8 -3 12 -7 10
-3 -2 -12 0 -20 6 -13 7 -12 9 3 9 9 0 17 4 17 10 0 5 -7 7 -15 4 -10 -4 -15
0 -15 11 0 10 5 13 12 9 7 -4 8 -3 4 4 -4 6 -14 8 -22 5 -13 -5 -15 -1 -10 15
6 17 4 21 -7 16 -10 -4 -14 2 -12 20 2 19 -1 23 -13 19 -10 -4 -13 -2 -8 6 4
7 -2 20 -16 31 -14 13 -17 19 -8 18 8 -2 19 -7 23 -13 5 -6 7 -4 4 5 -2 8 -14
17 -27 18 -18 3 -20 6 -9 13 11 7 8 9 -9 9 -13 0 -20 4 -17 10 4 6 12 7 18 4
9 -5 9 -4 0 6 -7 8 -8 22 -3 40 9 32 -19 90 -45 90 -8 0 -24 9 -36 21 -16 16
-18 23 -8 35 6 8 8 14 3 14 -5 0 -10 11 -10 25 -3 47 -29 58 -99 41 -11 -2
-23 -5 -27 -5 -4 -1 -13 -8 -22 -16 -16 -16 -50 -10 -40 7 4 6 1 8 -7 6 -8 -3
-25 4 -38 16 -13 11 -21 15 -17 8 6 -9 2 -10 -18 -1 -16 8 -22 17 -18 28 5 14
3 14 -10 3 -13 -10 -18 -10 -24 -1 -5 8 -3 9 6 4 8 -5 11 -4 6 3 -4 6 -13 9
-21 6 -15 -6 -55 12 -67 30 -5 8 -8 7 -8 -1 0 -9 -6 -7 -20 4 -20 18 -54 27
-45 13 7 -11 -22 -7 -32 5 -4 4 -2 5 6 0 10 -6 12 -4 7 4 -6 9 -11 9 -21 1
-10 -8 -16 -7 -24 7 -6 10 -11 12 -11 5 0 -12 -51 -9 -73 5 -15 9 -77 10 -71
1 7 -11 -3 -10 -28 3 -15 8 -19 8 -14 0 4 -6 2 -11 -3 -11 -6 0 -11 5 -11 10
0 6 -5 10 -11 10 -5 0 -8 -3 -6 -7 3 -5 -6 -9 -19 -9 -23 -2 -24 -1 -7 12 22
16 15 18 -12 2z m-687 -291 c7 -8 7 -18 2 -27 -9 -14 -12 -7 -9 16 0 4 -5 11
-13 15 -8 5 -9 9 -2 9 6 0 16 -6 22 -13z m1772 -581 c0 -3 -4 -8 -10 -11 -5
-3 -10 -1 -10 4 0 6 5 11 10 11 6 0 10 -2 10 -4z m6 -72 c-1 -8 -6 -17 -12
-21 -5 -4 -6 -4 -2 1 4 5 3 14 -2 21 -7 8 -5 12 4 12 8 0 13 -6 12 -13z m4
-188 c0 -3 -4 -8 -10 -11 -5 -3 -10 -1 -10 4 0 6 5 11 10 11 6 0 10 -2 10 -4z
m-95 -346 c-3 -5 -11 -10 -16 -10 -6 0 -7 5 -4 10 3 6 11 10 16 10 6 0 7 -4 4
-10z m-27 -65 c-3 -3 -9 2 -12 12 -6 14 -5 15 5 6 7 -7 10 -15 7 -18z m-1546
-269 c7 4 8 2 4 -5 -9 -13 -26 -5 -25 12 0 9 2 8 6 -1 2 -6 10 -9 15 -6z
m1200 -100 c7 4 8 2 4 -4 -4 -6 -13 -9 -21 -6 -8 4 -12 11 -8 17 5 8 8 7 11
-1 2 -7 9 -9 14 -6z m-1032 -87 c0 -5 4 -8 8 -5 5 3 16 -4 25 -15 9 -10 12
-19 7 -19 -6 0 -13 7 -16 15 -4 8 -10 13 -14 10 -4 -3 -13 2 -20 10 -9 10 -9
15 -1 15 6 0 11 -5 11 -11z m380 -39 c0 -5 -5 -10 -11 -10 -5 0 -7 5 -4 10 3
6 8 10 11 10 2 0 4 -4 4 -10z m260 -2 c0 -11 -12 -10 -30 2 -12 7 -10 9 8 7
12 0 22 -5 22 -9z m224 3 c3 -5 -1 -14 -8 -20 -10 -9 -16 -9 -21 -1 -4 6 -1 9
7 8 7 -2 12 3 11 10 -3 14 3 16 11 3z m-744 -15 c0 -3 -4 -8 -10 -11 -5 -3
-10 -1 -10 4 0 6 5 11 10 11 6 0 10 -2 10 -4z"/>
<path d="M1515 2150 c3 -5 8 -10 11 -10 2 0 4 5 4 10 0 6 -5 10 -11 10 -5 0
-7 -4 -4 -10z"/>
<path d="M555 2069 c-4 -6 -5 -12 -2 -15 2 -3 7 2 10 11 7 17 1 20 -8 4z"/>
<path d="M125 1400 c-3 -5 -1 -10 4 -10 6 0 11 5 11 10 0 6 -2 10 -4 10 -3 0
-8 -4 -11 -10z"/>
<path d="M120 1311 c0 -7 -5 -9 -12 -5 -7 5 -8 3 -3 -5 5 -9 10 -10 18 -2 6 6
8 14 4 18 -4 3 -7 1 -7 -6z"/>
<path d="M107 1259 c7 -7 15 -10 18 -7 3 3 -2 9 -12 12 -14 6 -15 5 -6 -5z"/>
<path d="M111 1187 c-13 -21 -12 -21 5 -5 10 10 16 20 13 22 -3 3 -11 -5 -18
-17z"/>
<path d="M2166 1027 c3 -10 9 -15 12 -12 3 3 0 11 -7 18 -10 9 -11 8 -5 -6z"/>
<path d="M130 940 c0 -5 5 -10 11 -10 5 0 7 5 4 10 -3 6 -8 10 -11 10 -2 0 -4
-4 -4 -10z"/>
<path d="M2135 880 c-3 -5 -1 -10 4 -10 6 0 11 5 11 10 0 6 -2 10 -4 10 -3 0
-8 -4 -11 -10z"/>
<path d="M2099 803 c0 -5 -2 -16 -4 -26 -2 -11 0 -16 3 -12 4 4 7 10 7 13 0 4
4 13 8 20 5 7 4 12 -2 12 -6 0 -11 -3 -12 -7z"/>
<path d="M238 693 c7 -3 16 -2 19 1 4 3 -2 6 -13 5 -11 0 -14 -3 -6 -6z"/>
<path d="M304 591 c0 -10 6 -18 13 -18 17 0 17 12 0 25 -10 8 -13 6 -13 -7z"/>
<path d="M413 435 c0 -8 4 -12 9 -9 5 3 6 10 3 15 -9 13 -12 11 -12 -6z"/>
<path d="M500 360 c-6 -11 -8 -20 -6 -20 3 0 10 9 16 20 6 11 8 20 6 20 -3 0
-10 -9 -16 -20z"/>
<path d="M550 321 c0 -5 7 -14 16 -22 9 -7 13 -21 10 -33 -5 -19 -4 -20 8 -4
7 10 15 17 17 15 2 -1 -2 4 -10 11 -8 6 -11 12 -7 12 5 0 3 7 -4 15 -14 17
-30 20 -30 6z"/>
<path d="M1597 228 c-12 -9 -14 -17 -7 -28 5 -8 10 -10 10 -5 0 6 5 3 11 -5 9
-13 10 -13 6 0 -2 8 3 21 12 28 14 11 14 11 -3 5 -13 -4 -17 -3 -12 5 9 15 4
15 -17 0z"/>
<path d="M870 196 c0 -2 8 -10 18 -17 15 -13 16 -12 3 4 -13 16 -21 21 -21 13z"/>
<path d="M650 183 c0 -6 8 -17 18 -24 16 -13 16 -13 2 6 -8 11 -16 22 -17 24
-2 2 -3 0 -3 -6z"/>
<path d="M1337 161 c-4 -17 -3 -21 5 -13 5 5 8 16 6 23 -3 8 -7 3 -11 -10z"/>
<path d="M1373 161 c8 -9 12 -10 15 -2 2 6 8 9 13 5 5 -3 9 -1 9 4 0 6 -11 9
-24 8 -19 -1 -22 -4 -13 -15z"/>
<path d="M1424 154 c-18 -14 -18 -15 4 -4 12 6 22 13 22 15 0 8 -5 6 -26 -11z"/>
<path d="M1535 140 c-3 -6 1 -7 9 -4 18 7 21 14 7 14 -6 0 -13 -4 -16 -10z"/>
</g>
</svg>
